<mxfile host="Electron" agent="Mozilla/5.0 (Macintosh; Intel Mac OS X 10_15_7) AppleWebKit/537.36 (KHTML, like Gecko) draw.io/26.2.2 Chrome/134.0.6998.178 Electron/35.1.2 Safari/537.36" version="26.2.2">
  <diagram name="Strona-1" id="MsjGpEfHeeHfaQF7s-Dx">
    <mxGraphModel dx="903" dy="1198" grid="1" gridSize="10" guides="1" tooltips="1" connect="1" arrows="1" fold="1" page="1" pageScale="1" pageWidth="827" pageHeight="1169" math="0" shadow="0">
      <root>
        <mxCell id="0" />
        <mxCell id="1" parent="0" />
        <mxCell id="kjm4CxXW43H0VO-2mKw2-1" style="edgeStyle=orthogonalEdgeStyle;rounded=0;orthogonalLoop=1;jettySize=auto;html=1;" parent="1" source="7XvBnW_QyKP0ULLIOw71-1" target="7XvBnW_QyKP0ULLIOw71-3" edge="1">
          <mxGeometry relative="1" as="geometry" />
        </mxCell>
        <mxCell id="7XvBnW_QyKP0ULLIOw71-1" value="&lt;font style=&quot;font-size: 18px;&quot;&gt;Administrator systemu&lt;/font&gt;" style="shape=umlActor;verticalLabelPosition=bottom;verticalAlign=top;html=1;align=center;" parent="1" vertex="1">
          <mxGeometry x="90" y="340" width="120" height="260" as="geometry" />
        </mxCell>
        <mxCell id="7XvBnW_QyKP0ULLIOw71-2" value="System: Zarządzanie użytkownikami" style="shape=umlFrame;whiteSpace=wrap;html=1;pointerEvents=0;width=100;height=70;" parent="1" vertex="1">
          <mxGeometry x="280" y="150" width="490" height="785" as="geometry" />
        </mxCell>
        <mxCell id="7XvBnW_QyKP0ULLIOw71-3" value="&lt;font style=&quot;font-size: 18px;&quot;&gt;Zarządzanie użytkownikami&lt;/font&gt;" style="ellipse;whiteSpace=wrap;html=1;" parent="1" vertex="1">
          <mxGeometry x="430" y="230" width="190" height="110" as="geometry" />
        </mxCell>
        <mxCell id="7XvBnW_QyKP0ULLIOw71-4" value="&lt;font style=&quot;font-size: 18px;&quot;&gt;Dodawanie użytkownika&lt;/font&gt;" style="ellipse;whiteSpace=wrap;html=1;" parent="1" vertex="1">
          <mxGeometry x="290" y="730" width="180" height="80" as="geometry" />
        </mxCell>
        <mxCell id="7XvBnW_QyKP0ULLIOw71-5" value="&lt;font style=&quot;font-size: 18px;&quot;&gt;Usuwanie użytkownika&lt;/font&gt;" style="ellipse;whiteSpace=wrap;html=1;" parent="1" vertex="1">
          <mxGeometry x="590" y="700" width="160" height="80" as="geometry" />
        </mxCell>
        <mxCell id="7XvBnW_QyKP0ULLIOw71-6" value="&lt;font style=&quot;font-size: 18px;&quot;&gt;Edytowanie użytkownika&lt;/font&gt;" style="ellipse;whiteSpace=wrap;html=1;" parent="1" vertex="1">
          <mxGeometry x="452.5" y="600" width="145" height="80" as="geometry" />
        </mxCell>
        <mxCell id="kjm4CxXW43H0VO-2mKw2-2" value="&lt;font style=&quot;font-size: 16px;&quot;&gt;&amp;lt;&amp;lt;include&amp;gt;&amp;gt;&lt;/font&gt;" style="endArrow=open;endSize=12;dashed=1;html=1;rounded=0;exitX=0;exitY=1;exitDx=0;exitDy=0;entryX=0.5;entryY=0;entryDx=0;entryDy=0;" parent="1" source="7XvBnW_QyKP0ULLIOw71-3" target="7XvBnW_QyKP0ULLIOw71-4" edge="1">
          <mxGeometry width="160" relative="1" as="geometry">
            <mxPoint x="340" y="520" as="sourcePoint" />
            <mxPoint x="500" y="520" as="targetPoint" />
          </mxGeometry>
        </mxCell>
        <mxCell id="kjm4CxXW43H0VO-2mKw2-3" value="&lt;font style=&quot;font-size: 16px;&quot;&gt;&amp;lt;&amp;lt;include&amp;gt;&amp;gt;&lt;/font&gt;" style="endArrow=open;endSize=12;dashed=1;html=1;rounded=0;exitX=0.5;exitY=1;exitDx=0;exitDy=0;entryX=0.5;entryY=0;entryDx=0;entryDy=0;" parent="1" source="7XvBnW_QyKP0ULLIOw71-3" target="7XvBnW_QyKP0ULLIOw71-6" edge="1">
          <mxGeometry width="160" relative="1" as="geometry">
            <mxPoint x="468" y="334" as="sourcePoint" />
            <mxPoint x="390" y="740" as="targetPoint" />
            <mxPoint as="offset" />
          </mxGeometry>
        </mxCell>
        <mxCell id="kjm4CxXW43H0VO-2mKw2-4" value="&lt;font style=&quot;font-size: 16px;&quot;&gt;&amp;lt;&amp;lt;include&amp;gt;&amp;gt;&lt;/font&gt;" style="endArrow=open;endSize=12;dashed=1;html=1;rounded=0;exitX=1;exitY=1;exitDx=0;exitDy=0;entryX=0.5;entryY=0;entryDx=0;entryDy=0;" parent="1" source="7XvBnW_QyKP0ULLIOw71-3" target="7XvBnW_QyKP0ULLIOw71-5" edge="1">
          <mxGeometry width="160" relative="1" as="geometry">
            <mxPoint x="535" y="350" as="sourcePoint" />
            <mxPoint x="535" y="610" as="targetPoint" />
          </mxGeometry>
        </mxCell>
        <mxCell id="loUR2IRZJNHJyPDvMvYA-1" value="&lt;font style=&quot;font-size: 20px;&quot;&gt;Zarządzanie użytkownikami&lt;/font&gt;" style="text;html=1;align=center;verticalAlign=middle;resizable=0;points=[];autosize=1;strokeColor=none;fillColor=none;" vertex="1" parent="1">
          <mxGeometry x="279" y="23" width="270" height="40" as="geometry" />
        </mxCell>
      </root>
    </mxGraphModel>
  </diagram>
</mxfile>
